# xmcd
#
# Track frame offsets:
# 150
# 21761
# 42117
# 65172
# 88550
# 112678
# 135612
# 159491
# 183070
# 202940
# 226648
#
# Disc length: 3245 seconds
#
#
# Revision: 0
# Processed by: cddbd v1.5.2PL0 Copyright (c) Steve Scherf et al.
# Submitted via: FreeRIP 2.96 
#
DISCID=7b0cab0b
DTITLE=Yasmina Khandra - Die Sirenen von Bagdad CD2
DYEAR=2008
DGENRE=Speech
TTITLE0=12 Ich bin vor 3 Wochen in Beirut eingetroffen
TTITLE1=13 Said wischte sich mit einem Taschentuch
TTITLE2=14 3 Wochen vergingen
TTITLE3=15 Mensch, das darf doch nicht wahr sein
TTITLE4=16 Salah
TTITLE5=17 Den Krieg gegen den Irak
TTITLE6=18 Was ist los mit dir?
TTITLE7=19 Der Empfangschef
TTITLE8=20 Ich hole ihm den Mond vom Himmel
TTITLE9=21 Du verreist?
TTITLE10=22 Jetzt bin nur noch ich uebrig
EXTD=Hörspiel
EXTT0=
EXTT1=
EXTT2=
EXTT3=
EXTT4=
EXTT5=
EXTT6=
EXTT7=
EXTT8=
EXTT9=
EXTT10=
PLAYORDER=
